<?xml version="1.0" encoding="UTF-8"?>
<svg xmlns="http://www.w3.org/2000/svg" xmlns:xlink="http://www.w3.org/1999/xlink" width="429px" height="484px" viewBox="0 0 429 484">
  <!-- Generator: Sketch 53 (72520) - https://sketchapp.com -->
  <title>DT-3-Design Thinking</title>
  <desc>Created with Sketch.</desc>
  <defs>
    <polygon id="path-1" points="0.629350707 0.71 33.589844 0.71 33.589844 31.7666556 0.629350707 31.7666556"></polygon>
  </defs>
  <g id="DT-3-Design-Thinking" stroke="none" stroke-width="1" fill="none" fill-rule="evenodd">
    <g id="IDEO_or" transform="translate(185.500000, 470.000000)" fill="#ED943E">
      <g id="IDEO-Logo-Copy-11">
        <path d="M21.4066972,0.554531747 L15.4561831,0.554531747 L15.4561831,13.1045056 L21.2888592,13.1045056 C25.0651901,13.0611457 27.6664085,10.3332565 27.6664085,6.81078551 C27.6664085,3.32599133 25.1189014,0.650934002 21.4066972,0.554531747 L21.4066972,0.554531747 Z M21.2980493,10.9445058 L21.2980493,10.9426114 L17.6405775,10.9426114 L17.6405775,2.71284773 L21.3319507,2.71284773 C23.7295563,2.77115215 25.2904507,4.49649993 25.2904507,6.84467364 C25.2904507,9.20400306 23.7152606,10.9030402 21.2980493,10.9445058 L21.2980493,10.9445058 Z" id="Fill-1"></path>
        <polyline id="Fill-2" points="12.2404507 2.75978595 12.2404507 0.554531747 0.0631056338 0.554531747 0.0631056338 2.75978595 5.05702817 2.75978595 5.05702817 10.8992514 0.0631056338 10.8992514 0.0631056338 13.1045056 12.2404507 13.1045056 12.2404507 10.8992514 7.24775352 10.8992514 7.24775352 2.75978595 12.2404507 2.75978595"></polyline>
        <polyline id="Fill-3" points="42.6132535 2.7505246 42.6132535 0.554531747 30.3382887 0.554531747 30.3382887 13.1045056 42.6132535 13.1045056 42.6132535 10.9068289 32.539838 10.9068289 32.539838 7.92656794 40.4027183 7.92656794 40.4027183 5.73078557 32.539838 5.73078557 32.539838 2.7505246 42.6132535 2.7505246"></polyline>
        <path d="M51.2621972,0.00158693626 C47.5661268,0.00158693626 44.5709577,3.05909601 44.5709577,6.82783481 C44.5709577,10.6001519 47.5661268,13.6559771 51.2621972,13.6559771 C54.9570423,13.6559771 57.9536408,10.6001519 57.9536408,6.82783481 C57.9536408,3.05909601 54.9570423,0.00158693626 51.2621972,0.00158693626 L51.2621972,0.00158693626 Z M51.2621972,11.3000154 C48.8429437,11.3000154 46.8809507,9.29830046 46.8809507,6.82783481 C46.8809507,4.36094742 48.8429437,2.35902199 51.2621972,2.35902199 C53.6810423,2.35902199 55.6434437,4.36094742 55.6434437,6.82783481 C55.6434437,9.29830046 53.6810423,11.3000154 51.2621972,11.3000154 L51.2621972,11.3000154 Z" id="Fill-4"></path>
      </g>
    </g>
    <text id="The-intersection-whe" font-family="Sentinel-BookItalic, Sentinel" font-size="16" font-style="italic" font-weight="300" fill="#000000">
      <tspan x="68.076" y="458">The intersection where design thinking lives</tspan>
    </text>
    <g id="Group-70">
      <path d="M362.2337,41.0978 C361.5817,32.2358 350.9947,41.3328 351.4197,47.1008 C353.7347,78.5518 346.5927,111.4758 326.9317,136.6998 C309.2447,159.3898 282.3567,174.9348 253.5567,177.3758 C255.0367,175.3688 256.4537,173.3048 257.7947,171.1628 C258.8057,169.5478 259.8057,165.9738 257.6857,164.7498 C255.4847,163.4788 253.0587,166.2988 252.0787,167.8638 C248.9437,172.8688 245.2817,177.4738 241.0757,181.6238 C239.3687,183.3068 236.2637,188.2878 239.4057,190.2158 C245.9127,194.2088 252.3637,198.2888 258.7587,202.4568 C262.4707,204.8758 268.0937,195.4308 264.2587,192.9308 C262.5877,191.8418 260.9017,190.7738 259.2227,189.6968 C309.2227,180.6588 346.7757,138.3868 358.5117,89.3568 C362.2827,73.6088 363.4207,57.2318 362.2337,41.0978" id="Fill-1" fill="#231F20"></path>
      <path d="M250.1819,228.5729 C244.9749,225.3709 239.5699,222.5559 233.9029,220.2549 C229.7579,218.5729 224.4599,215.3969 220.4709,218.8359 C216.5479,222.2169 216.2489,228.5219 215.4179,233.2249 C214.2159,240.0289 213.1979,246.8609 212.3189,253.7139 C211.4039,260.8539 219.4239,256.4859 220.0309,251.7549 C220.6689,246.7709 221.3749,241.7979 222.1839,236.8389 C222.2659,236.3359 222.3509,235.7419 222.4389,235.1019 C240.6119,274.1349 237.5899,321.6209 214.0799,357.7419 C212.6619,359.9209 211.3649,364.8339 214.2279,366.4869 C217.2579,368.2369 220.5009,364.3519 221.8749,362.2419 C246.6269,324.2119 251.7209,275.2439 235.6819,233.0749 C238.7559,234.6119 241.7489,236.2959 244.6819,238.0989 C248.4859,240.4379 254.0599,230.9569 250.1819,228.5729" id="Fill-3" fill="#231F20"></path>
      <path d="M190.9973,167.737 C187.5293,162.676 179.2173,173.793 182.3123,178.312 C183.7443,180.402 185.0803,182.531 186.3223,184.708 C160.8443,178.008 135.5313,167.707 119.2423,146.063 C103.1163,124.634 97.3283,96.421 104.6193,70.549 C105.4233,67.699 103.8163,64.579 100.6333,65.14 C97.0263,65.777 94.9653,70.164 94.1033,73.22 C86.2033,101.254 91.9453,132.666 109.0683,156.217 C126.5043,180.197 153.9473,191.366 181.7283,198.584 C179.6723,200.018 177.5713,201.398 175.4103,202.709 C172.6243,204.399 170.2883,207.923 170.4603,211.282 C170.6073,214.152 172.9233,215.879 175.6043,214.252 C183.6903,209.347 191.2433,203.703 198.1663,197.257 C200.2953,195.274 202.8243,191.292 201.6493,188.209 C198.8903,180.966 195.3793,174.133 190.9973,167.737" id="Fill-5" fill="#231F20"></path>
      <path d="M181.0803,42.5768 C182.9293,42.4918 183.9093,41.6198 185.7603,41.4968 C185.9603,43.9728 186.7553,46.6268 187.3803,48.8768 C187.6603,49.8858 187.3663,51.3128 187.5593,51.9368 C187.7323,52.4908 188.6043,53.4488 189.0003,53.9168 C189.3313,54.1278 190.2853,54.0718 190.6203,54.2768 C192.2173,54.2548 192.2243,53.6378 192.9603,52.8368 C192.8573,50.7848 191.6253,47.9448 191.1603,46.3568 C190.6883,44.7458 191.0693,42.7548 190.2603,41.4968 L190.2603,40.5968 C191.7373,40.3088 197.0863,40.0978 197.6403,39.5168 C198.6113,39.8068 199.1173,40.9028 199.9793,41.3168 L200.7003,41.3168 C202.4283,42.0008 204.5353,42.9238 206.2793,43.6568 L207.8993,44.0168 C208.4073,44.2588 208.9133,44.8188 209.5193,45.0968 C210.3333,47.3008 209.0443,51.8918 208.4393,54.2768 C208.1513,55.4128 208.4583,56.6818 207.7203,57.3368 C207.6793,59.1748 209.2673,61.6158 211.5003,60.9368 C212.1103,60.7508 212.6223,60.0338 213.1203,59.6768 C213.2793,58.1348 212.6203,55.7128 213.1203,53.7368 C213.9553,50.4358 215.5933,40.9428 214.9203,37.8968 C214.6613,36.7268 215.6833,33.7298 215.2793,33.0368 C214.7703,31.5558 213.4093,31.8388 212.2203,31.0568 C211.4373,31.3848 211.0383,32.0278 210.4203,32.4968 C210.4353,34.3888 210.4143,36.9868 210.2393,38.0768 C210.0773,39.0918 210.5103,40.5978 210.0593,41.3168 C209.7593,41.6188 208.1943,40.6138 207.7203,40.4168 C206.1943,39.7848 204.9173,39.5978 203.3993,38.9768 C202.7303,38.7028 202.0813,37.9688 201.4203,37.7168 C200.8253,37.4898 199.5703,37.4018 199.0803,37.7168 C198.6243,37.4738 198.0863,36.7088 197.8193,36.2768 C195.0163,36.1698 192.5113,36.4608 189.8993,36.9968 C188.6853,37.2458 187.6023,36.2788 186.6603,36.4568 C185.8783,36.6048 185.2903,37.4668 184.6803,37.7168 C183.0593,38.0768 181.4393,38.4368 179.8193,38.7968 C179.3833,39.0198 178.9963,39.5968 178.5593,39.8768 C178.6343,40.2518 178.7303,40.8628 178.9203,41.1368 C179.3353,41.9728 180.4113,42.0038 181.0803,42.5768" id="Fill-7" fill="#231F20"></path>
      <path d="M105.4798,45.2765 L105.1208,45.2765 C105.2938,43.4935 106.0218,42.0635 106.0198,40.0565 L106.3798,40.0565 C107.1768,41.2825 108.5038,42.9075 108.7198,44.5565 C107.6468,44.6815 106.0338,44.8745 105.4798,45.2765 M114.4798,46.8965 L114.6608,46.7165 C117.6308,46.8165 117.1148,46.5605 118.2598,44.9165 C118.0418,43.7495 117.3248,43.7405 116.8198,42.9365 C115.6338,42.9215 114.2548,42.9475 113.5808,43.4765 C111.9808,43.2265 112.2798,41.7525 111.5998,40.5965 C110.8608,39.3395 109.2238,36.3865 107.8198,35.9165 L106.3798,35.9165 C105.7718,35.7265 105.0858,35.0415 104.3998,35.3765 C103.0558,35.4715 102.9048,36.1215 101.8798,36.4565 C102.9788,42.2485 97.9848,48.9615 100.2598,53.3765 C101.0998,53.6165 101.9398,53.8565 102.7798,54.0965 C103.7588,53.7405 103.7928,52.8155 104.3998,52.1165 C104.2598,50.8205 103.8588,50.3175 104.0408,48.8765 C105.2348,48.9395 108.4168,48.6805 109.4398,47.7965 C111.1388,47.8705 111.9088,50.9205 112.3198,52.2965 L112.3198,53.5565 C112.7288,54.2855 113.8588,54.7935 114.4798,55.3565 C116.2698,55.3535 116.6618,54.8465 117.7198,54.2765 C117.6398,52.3095 116.6788,52.0865 116.0998,50.8565 C115.4628,49.5045 115.1398,48.1265 114.4798,46.8965" id="Fill-9" fill="#231F20"></path>
      <path d="M143.0999,52.2966 C143.1959,53.5806 143.7349,53.3056 143.9999,54.2766 C144.6599,54.4566 145.3209,54.6366 145.9799,54.8166 C147.0489,54.7226 147.1329,54.3506 147.7799,53.9166 C147.9229,53.2956 148.3579,52.6566 148.1399,51.7566 C147.9839,51.1096 147.5209,49.9686 147.7799,48.8766 C148.4579,46.0176 148.5789,41.7366 148.3199,39.3366 C148.2399,38.5906 148.4409,37.6576 148.1399,37.1766 C148.0229,36.0706 147.5679,36.1856 147.0599,35.5566 L144.1799,35.3766 C143.8999,35.7486 143.6129,35.9486 143.0999,36.0966 C143.1379,39.0386 144.8099,41.2016 143.9999,44.7366 C143.6709,46.1736 142.5939,51.1456 143.0999,52.2966" id="Fill-11" fill="#231F20"></path>
      <path d="M174.5999,49.0568 C175.0369,51.0018 173.9649,53.5368 174.5999,54.6368 C174.6999,55.6238 175.3999,56.0388 176.0399,56.4368 C176.2809,56.6308 178.0099,56.6018 178.5599,56.0768 C179.2459,55.6828 179.9569,54.1478 179.6399,52.8368 C178.9349,49.9288 178.3329,44.8088 177.2999,41.3168 C177.0279,40.3968 177.1989,39.5818 176.9399,39.1568 C177.0009,37.0598 175.8059,36.4528 174.2399,36.0968 C174.0089,36.2548 173.7959,36.2638 173.3399,36.2768 C172.7999,36.6968 172.2599,37.1168 171.7199,37.5368 C171.8259,38.6878 172.3049,39.5298 172.6209,40.4168 C173.6109,43.2088 173.9469,46.1478 174.5999,49.0568" id="Fill-13" fill="#231F20"></path>
      <path d="M127.4397,51.5768 C127.0247,51.5178 126.9927,51.4928 126.7197,51.3968 C126.6037,51.0858 126.6847,51.2208 126.5407,51.0368 C126.5907,48.5938 131.3477,48.5248 133.0197,47.4368 C133.2007,47.4968 133.3797,47.5568 133.5597,47.6168 C131.8977,49.4848 129.5607,50.1218 127.4397,51.5768 M126.0007,45.2768 C125.1897,45.0298 125.6377,44.3988 125.0997,43.6568 C125.1827,41.4898 128.4947,40.6558 130.6797,40.5968 C130.2847,43.0738 127.3007,43.6498 126.0007,45.2768 M135.8997,44.0168 C135.4907,43.9258 134.7217,43.7078 134.2797,44.0168 L133.2007,44.0168 C134.1047,42.6438 135.4897,41.7428 135.5407,39.5168 C135.1797,39.0368 134.8197,38.5568 134.4607,38.0768 C132.7317,37.0078 126.6447,36.9888 125.2797,38.2568 C124.3827,37.9038 124.0257,36.8768 123.1207,36.4568 C122.7937,36.2338 122.0897,36.2558 121.5007,36.2768 C121.1607,36.7438 120.6567,36.8058 120.2397,37.1768 C119.8427,37.7598 120.1277,39.2368 120.4197,40.4168 C120.7917,41.9158 121.1447,43.9538 121.5007,45.4568 C121.9607,47.4038 121.4417,49.7618 122.3997,51.2168 C122.2727,54.3568 123.6047,54.1868 125.8197,54.9968 C126.3927,55.2058 127.4147,55.8128 127.9797,55.5368 C129.4517,55.3508 130.2887,53.8578 131.3997,53.1968 C133.4807,51.9588 137.2817,49.6328 138.5997,47.7968 C138.9227,47.3478 138.9607,46.7508 139.3197,46.3568 C139.3597,43.8188 137.9927,44.4828 135.8997,44.0168" id="Fill-15" fill="#231F20"></path>
      <path d="M152.0999,51.7565 C153.1899,51.8385 154.2079,52.7935 155.3399,52.4765 C157.4099,51.8975 159.7869,50.5185 161.6399,49.9565 C162.6899,49.6385 163.8879,49.4285 164.7009,49.2365 C165.4389,49.0625 165.8599,49.6085 166.4999,49.2365 C168.0579,49.0895 167.6579,48.0705 168.2999,47.0765 C168.1799,46.4145 167.9709,46.1745 167.5799,45.8165 C165.2799,44.1705 159.4539,47.4025 156.4199,47.7965 C156.4659,46.5955 158.0909,40.0955 158.5799,39.5165 C158.5939,38.0085 158.3149,37.6855 157.8599,36.8165 C157.2599,36.6365 156.6599,36.4565 156.0599,36.2765 C154.7199,36.3835 154.3809,36.9905 153.5399,37.5365 C153.6209,40.5685 153.1089,43.4435 152.2799,46.1765 C152.0059,47.0815 150.9129,48.9805 151.3799,50.3165 C151.5329,50.7535 151.9579,51.1465 152.0999,51.7565" id="Fill-17" fill="#231F20"></path>
      <path d="M44.2796,50.1369 C45.2296,50.4439 47.2726,50.8039 47.8806,50.4969 L48.7796,50.4969 C48.2106,52.0419 44.9786,53.2039 43.3806,53.7369 C42.3256,54.0879 41.5356,53.8079 40.6796,54.2769 C40.3806,54.5769 40.0806,54.8769 39.7796,55.1769 C39.8996,55.5969 40.0196,56.0169 40.1396,56.4369 C40.8196,56.7399 42.3266,57.5759 43.2006,56.9769 C44.8586,56.8509 45.6616,55.6729 46.8006,54.9969 C47.8776,54.3569 49.1406,54.2709 50.2196,53.5569 C51.8856,52.4539 53.2916,51.1019 54.7196,49.7769 C54.6946,48.6219 54.4276,48.6159 54.0006,47.9769 C51.0426,47.8759 45.3446,48.2939 44.0996,46.5369 L43.9206,46.5369 C43.8406,46.1839 43.9986,46.3049 44.0996,46.1769 C44.2186,44.0549 48.3656,41.3059 50.0406,40.5969 C51.1046,40.1459 51.9466,40.4609 52.7396,39.8769 C53.1476,39.5829 53.1736,39.6189 53.2796,38.9769 C53.4326,38.6739 53.3666,38.4199 53.0996,38.0769 C52.4806,37.2479 51.4806,37.1899 50.2196,36.9969 C49.0226,38.2159 46.8856,38.6369 45.3596,39.5169 C44.6126,39.9479 40.5446,42.9089 40.1396,43.4769 C39.7886,43.9699 39.7876,44.6459 39.4206,45.0969 C39.3436,48.6759 41.5776,49.2619 44.2796,50.1369" id="Fill-19" fill="#231F20"></path>
      <path d="M61.0198,49.7765 C61.1198,51.5635 60.3828,53.9395 61.0198,54.8165 C61.1468,56.0315 61.6948,55.7805 62.2798,56.4365 C63.1098,56.4865 64.0318,56.8235 64.6208,56.4365 C65.2998,56.1835 65.3548,55.7345 65.8798,55.3565 C65.8358,53.7895 65.6498,52.4045 65.3398,50.8565 C65.2558,50.4395 65.4288,48.6465 65.5198,47.9765 C65.6108,47.3075 65.2478,45.2405 65.1608,44.7365 C64.8888,43.1825 65.6658,41.2365 64.7998,39.8765 C64.8198,38.2935 64.4718,38.1925 63.8998,37.3565 L61.0198,37.3565 C60.7258,37.6655 60.3498,37.8825 59.9398,38.0765 C59.6858,39.5655 60.3298,41.0635 60.6608,42.5765 C60.7798,44.9765 60.8998,47.3765 61.0198,49.7765" id="Fill-21" fill="#231F20"></path>
      <path d="M75.5999,46.7165 C75.3909,46.0355 75.5779,45.2395 75.0599,44.5565 C75.1269,42.0745 78.0059,42.8435 79.5599,41.8565 L80.2799,41.8565 C79.7149,44.0105 77.4099,45.7385 75.5999,46.7165 M93.9599,48.6965 C90.6059,48.7415 83.0629,49.4865 81.1799,47.7965 L80.9999,47.7965 C81.6319,46.1045 86.5939,42.3655 84.7799,40.0565 C83.3479,36.9805 76.3849,39.7975 74.5199,39.6965 C74.0499,39.4035 73.8689,38.6345 73.4399,38.2565 C72.8669,37.8085 72.3079,37.8775 71.2799,37.8965 C70.7529,38.3095 69.7659,38.7905 69.1209,38.9765 C69.3579,41.1035 70.4459,43.2495 71.0999,45.6365 C71.2799,47.5565 71.4599,49.4765 71.6399,51.3965 C71.8329,52.2345 72.3229,54.5285 71.9999,55.1765 C72.0789,56.4525 72.6309,56.6585 73.0799,57.5165 C74.1449,57.5935 75.3889,57.9385 76.1399,57.3365 C76.6069,57.0205 76.6899,56.6745 77.0399,56.2565 C76.9739,54.9335 75.5959,50.9965 76.1399,49.7765 C76.3939,49.5525 79.5859,50.8055 80.2799,51.0365 C83.4959,52.1085 86.5959,51.6445 90.1799,51.7565 C91.3719,51.7945 92.9329,52.9055 93.9599,52.2965 C95.0049,52.2405 94.9799,51.9785 95.5799,51.5765 C95.5959,49.5215 94.8189,49.7165 93.9599,48.6965" id="Fill-23" fill="#231F20"></path>
      <path d="M20.8801,49.9567 C21.2291,51.5457 21.1271,53.4887 21.4201,54.6367 C21.8331,56.2567 21.0581,57.4417 22.6801,58.0567 C24.2601,59.1337 26.4341,57.8627 27.5401,57.3367 C30.5431,55.9087 34.7901,52.3387 38.1601,51.9367 C38.3181,51.6087 38.4631,51.2827 38.7001,51.0367 L38.3401,49.2367 C37.7601,49.1307 37.0521,49.0687 36.7201,48.6967 C34.7111,48.8277 34.0461,50.0597 32.7601,50.8567 C30.6791,52.1457 28.4901,53.2647 26.2791,54.2767 C25.9461,53.7037 25.7851,52.7537 25.3801,52.1167 C25.5811,50.2567 27.7821,50.1347 29.1601,49.4167 C30.5781,48.6767 32.3071,47.7737 33.8401,47.0767 C34.5601,47.0167 35.2801,46.9567 36.0001,46.8967 C36.6211,46.7107 37.0991,46.1247 37.6201,45.8167 C37.6251,44.8157 37.5221,44.1867 37.0801,43.6567 C34.0921,42.0417 28.2501,46.7887 25.0201,47.2567 C24.9981,46.5557 24.9231,45.5127 25.2001,45.0967 C25.6061,44.8207 26.3131,44.9437 26.8191,44.7367 C29.3641,43.6957 32.7261,42.6447 35.1001,41.3167 C35.0681,40.2107 34.7921,39.9187 34.5601,39.1567 C33.8441,39.0227 32.3771,38.8277 31.8591,38.9767 C30.9491,39.2397 29.6071,40.2517 28.6201,40.5967 C27.2361,41.0797 25.7711,41.0817 24.6601,41.8567 C23.6191,40.9177 22.7361,41.0217 21.4201,40.5967 L19.8001,41.8567 C20.0541,43.5577 20.5281,45.3867 20.8801,46.8967 L20.8801,49.9567 Z" id="Fill-25" fill="#231F20"></path>
      <path d="M5.3997,52.2966 C4.4707,51.7146 5.0667,50.0166 4.8597,48.6966 C4.5627,46.8026 4.8167,44.6396 4.8597,42.3966 C7.2317,42.1046 10.0697,42.2326 12.2397,42.3966 C12.2997,42.4566 12.3597,42.5166 12.4207,42.5766 C12.4357,47.8606 8.0717,49.6216 5.3997,52.2966 M14.2197,40.0566 C12.4137,39.3196 9.1017,39.3976 6.8397,39.3366 L4.8597,39.5166 C4.1227,39.3806 3.3347,39.1546 2.3397,39.1566 C2.0887,39.3286 1.6197,39.1516 1.2597,39.3366 C0.9037,39.5196 0.4097,40.1686 0.0007,40.4166 C0.2427,41.5986 0.4387,43.0826 0.7197,44.3766 C1.1137,46.1856 0.5407,48.0206 0.7197,49.2366 C1.0047,51.1616 0.4767,53.8976 1.0807,54.9966 C1.1367,56.9746 3.2277,56.9666 4.8597,56.7966 C8.6137,52.8436 16.6117,49.3996 16.5597,42.0366 C15.8407,41.3456 15.2167,40.4636 14.2197,40.0566" id="Fill-27" fill="#231F20"></path>
      <path d="M298.2044,382.1232 C298.0814,382.3882 297.9784,382.1952 298.1944,382.4832 C298.1154,385.5082 303.0334,387.2662 305.0504,388.6122 C305.8874,389.1712 306.0954,390.0792 307.3454,390.2952 C307.1544,392.7112 306.0734,394.7602 305.3694,396.7242 C304.6174,398.8202 304.5804,400.8622 303.7594,402.9822 C303.3024,404.1582 302.7724,405.1552 302.7514,406.9162 C303.1004,407.3462 303.4474,407.7752 303.7964,408.2052 C305.5754,408.4642 306.1434,408.0572 307.5854,407.9482 C307.7214,407.3522 307.8574,406.7552 307.9934,406.1592 C307.9284,405.6652 307.2474,405.3142 307.5024,404.3452 C308.2064,401.6702 309.2214,398.7342 310.0624,396.3112 C310.3714,395.4202 310.1514,394.8622 310.4854,393.9822 C311.2574,391.9512 312.9064,388.2272 312.6714,386.4782 C312.6054,385.9942 313.1414,384.7542 313.2694,384.3342 C313.9934,381.9712 314.3294,379.2202 313.4614,377.3172 C312.6834,377.0882 311.9474,376.8922 310.7714,376.8832 C310.6004,377.0422 310.4514,377.1182 310.2224,377.2282 C309.2454,379.4532 309.7734,384.0912 308.5424,386.0062 L308.5324,386.3662 C306.4684,386.1032 301.7214,382.5562 300.3884,381.2822 C299.8294,381.2552 299.2534,381.2262 298.9434,381.4232 C298.3924,381.6032 298.4054,381.5742 298.2044,382.1232" id="Fill-29" fill="#231F20"></path>
      <path d="M249.0618,388.1681 L248.9488,392.3061 C248.5548,393.8511 248.4488,395.2711 248.4658,396.7951 C248.7398,397.0731 248.8628,397.2631 248.9818,397.7091 C249.8278,397.8871 251.0538,398.0441 251.4858,398.3171 C252.4248,398.1741 252.9418,397.2361 253.1598,396.3821 C253.1898,396.3081 252.5768,392.3611 252.9568,390.6151 C253.1668,389.6461 253.9848,381.2511 253.6108,379.8291 C253.4488,379.2141 252.8848,378.6881 252.5748,378.1801 C251.8828,377.9751 251.4508,377.7751 250.4248,377.7611 C250.1218,378.0551 249.6698,378.4031 249.3218,378.6311 C249.4598,382.1571 249.6118,385.1671 249.0618,388.1681" id="Fill-31" fill="#231F20"></path>
      <path d="M285.3313,385.3742 L285.6903,385.3842 C285.7803,387.9452 286.1253,389.0832 286.0633,391.5162 C286.0253,393.0312 285.3593,395.1292 286.1163,396.1992 C286.6283,396.9942 287.5593,396.9122 288.2413,397.5182 C289.8663,397.4792 289.7073,396.6292 290.6243,395.9622 C290.5493,395.1862 290.2833,394.4412 290.1433,393.7882 C289.7233,391.8262 290.2763,390.5202 289.9213,388.7402 C289.6863,387.5652 290.0893,386.2352 289.8243,385.6762 C289.8763,385.2602 289.8733,385.1702 290.0233,384.9612 C291.3533,383.9482 294.6563,384.1852 296.7113,384.0632 C296.9683,383.5802 297.2713,383.0172 297.6493,382.6482 C297.6433,382.1922 297.6453,381.9812 297.4943,381.7442 C297.2273,380.8752 296.0453,380.1572 295.2043,379.8812 C294.3223,380.4282 293.0943,380.0332 291.9503,380.3322 C291.1083,380.5532 289.6103,380.9582 288.6863,381.1442 C287.9093,381.0622 287.1313,380.9812 286.3523,380.9002 C286.0423,380.9932 285.6213,381.4922 285.2543,381.5902 C284.7223,381.7332 281.4753,381.4882 281.4753,381.4882 C281.1393,382.1542 280.8903,383.2672 281.4063,384.0072 C281.8903,385.1722 284.4333,385.8412 285.3313,385.3742" id="Fill-33" fill="#231F20"></path>
      <path d="M220.4729,380.007 C220.1039,379.14 218.9099,378.838 217.6229,378.849 C217.3229,379.098 216.8549,379.354 216.5249,379.539 C216.3159,382.976 217.5389,387.352 217.4459,391.989 C217.4149,393.483 218.0439,396.566 217.1189,397.382 C217.1319,398.939 217.8259,399.706 218.8399,400.31 C218.9329,400.419 220.4749,400.72 220.9989,400.369 C221.6039,400.151 221.8329,399.691 222.2879,399.323 C222.1709,397.742 221.7539,395.539 221.3659,393.536 L221.4339,391.017 C221.0169,388.83 221.2599,386.76 220.8849,384.7 C220.8109,384.291 221.0799,383.739 221.0949,383.625 C221.1699,383.032 220.7689,380.375 220.4729,380.007" id="Fill-35" fill="#231F20"></path>
      <path d="M273.9505,386.6847 C273.7035,388.3787 273.7845,391.1717 273.9735,392.4477 C274.1225,393.4467 273.2115,395.1497 273.3415,395.8517 C273.3805,396.0627 273.7975,396.4487 273.8615,396.5857 C274.4675,397.8807 275.6245,399.1017 277.0515,398.4737 C277.7005,398.2147 277.7885,397.6207 278.3455,397.2477 C278.2165,395.6477 278.1555,393.6517 277.7775,391.6507 C277.5345,390.3687 278.0015,388.4657 277.8855,387.6927 C277.5365,385.3737 278.7815,383.4977 277.6815,381.9247 C277.3895,381.6167 277.0975,381.3087 276.8065,381.0007 C276.1485,380.9227 275.4905,380.8447 274.8325,380.7667 C274.4925,381.0397 274.0475,381.1607 273.7335,381.4567 C272.8185,382.6187 274.2525,384.6277 273.9505,386.6847" id="Fill-37" fill="#231F20"></path>
      <path d="M168.8606,384.1838 C165.9526,384.2068 162.7236,385.4408 160.5146,386.4768 C159.6776,386.8698 159.1136,387.5378 157.9616,387.6678 C157.9926,387.0738 158.0396,386.3388 158.0006,386.2288 C158.1366,384.6548 159.1096,384.9848 160.2086,384.4888 C161.8786,383.7338 163.8686,383.1178 165.8396,382.6608 L167.4606,382.7048 C167.9556,382.5168 168.5096,381.9138 169.1086,381.6698 C169.2426,378.9538 167.9606,379.6968 166.8576,378.3668 C165.3236,378.3998 164.7056,379.1218 163.5846,379.5378 C161.9916,380.1318 160.6586,380.1148 159.0516,380.6758 C158.7536,380.7798 158.2556,381.2808 157.9526,381.3658 C156.1806,381.8668 155.6586,380.0648 154.3646,380.9078 C153.8226,381.1028 153.8486,381.3148 153.4446,381.6028 C153.3616,382.4408 153.2796,383.2798 153.1966,384.1178 C153.3466,384.7738 153.8756,385.5388 154.0376,386.3008 L154.1196,389.9048 C154.4776,391.5328 155.0476,393.3708 155.4256,394.8018 C155.8086,396.2478 155.5626,397.1968 156.2326,398.2458 C156.6906,398.6378 157.4936,398.6568 158.0126,399.0138 C159.3566,398.8698 159.4326,398.0438 160.3906,397.6388 C161.1146,397.3318 161.6706,397.4408 162.3846,397.1518 C165.0366,396.0828 167.5926,394.2988 170.9346,393.9638 C171.2496,393.4328 171.5636,392.9008 171.8786,392.3688 C171.1036,391.7558 170.9996,390.9538 169.9486,390.5158 C169.4766,390.2028 168.4496,390.0228 167.7946,390.2768 C167.2606,390.4838 166.6966,391.2538 166.1396,391.4928 C163.8676,392.4668 161.5446,393.2158 159.2286,394.0048 C159.0066,393.4648 158.6316,392.6688 158.9186,392.1958 C159.5246,391.1428 161.1056,390.8828 162.2116,390.3048 C164.0776,389.3298 167.8856,387.3788 170.3966,387.2868 C170.4276,386.6938 170.4736,385.9988 170.2596,385.6628 C169.9776,384.8158 169.3176,384.8228 168.8606,384.1838" id="Fill-39" fill="#231F20"></path>
      <path d="M197.0266,388.0119 C197.1316,388.5549 197.2366,389.0979 197.3416,389.6409 C198.4666,391.7269 202.9986,392.5639 205.5416,392.7449 L205.5366,392.9249 C204.6496,393.3559 203.8536,394.1149 202.9726,394.4759 C202.2336,394.7789 201.4196,394.7319 200.7946,395.1369 C199.6306,394.9839 198.8896,393.6469 197.7546,394.3339 C196.6416,394.4459 196.5936,395.0339 195.9216,395.5449 C195.9836,395.9319 196.0536,396.6959 196.2416,396.9939 C196.7746,398.6349 199.3846,399.0419 201.4206,398.5749 C203.6996,398.0529 209.6536,395.4909 210.3796,393.5969 C210.8506,393.0269 210.8906,391.8249 210.4426,391.2579 C208.7236,388.6399 204.4686,390.4209 202.2296,388.6939 C201.3146,388.6219 201.3216,388.4599 200.8046,388.1149 C201.2986,385.2939 204.9776,383.5539 207.0846,382.3439 C207.1856,380.5119 206.5676,380.1369 205.3586,379.5949 C204.6146,380.0419 203.6686,379.8969 202.8196,380.2469 C201.1466,380.9369 198.2196,383.4719 197.2896,384.9579 C196.7226,385.8639 196.6906,387.1919 197.0266,388.0119" id="Fill-41" fill="#231F20"></path>
      <path d="M235.011,394.988 C234.324,394.976 233.653,394.924 233.216,394.759 C233.215,394.199 233.19,393.809 233.245,393.679 C234.129,392.028 238.134,391.805 239.807,390.797 L240.166,390.807 C239.645,393.107 236.341,393.593 235.011,394.988 M233.403,387.922 C233.399,384.135 236.543,385.619 238.548,384.1 L239.623,384.31 C238.796,386.463 235.541,387.235 233.922,388.656 C233.509,388.587 233.478,388.56 233.207,388.457 C233.289,388.089 233.262,388.111 233.403,387.922 M242.054,387.617 C242.46,386.551 244.248,385.407 243.956,383.887 C243.88,383.495 243.404,383.402 243.256,383.148 C241.667,380.415 239.321,380.207 235.747,381.143 C234.969,381.347 234.434,381.199 233.934,381.634 C233.155,381.471 232.849,381.077 232.524,380.515 L231.089,380.296 C230.676,380.589 230.169,380.647 229.81,380.982 C229.131,381.825 229.429,383.225 229.172,384.566 C229.044,385.233 229.659,385.427 229.483,386.375 C228.827,389.884 228.729,395.76 229.525,398.08 C234.148,400.088 240.588,396.244 242.796,393.4 C243.554,392.425 244.007,391.104 244.864,390.215 L244.879,389.675 C243.961,388.728 243.66,387.994 242.054,387.617" id="Fill-43" fill="#231F20"></path>
      <path d="M260.3089,391.7155 C260.4469,389.9445 261.6489,385.2335 262.1339,384.2025 C261.9879,383.1915 261.0929,382.2915 260.2139,381.9895 C259.7029,381.6155 258.3689,381.8535 258.2349,381.9355 C257.9199,382.0435 258.0569,381.9655 257.8699,382.1055 C257.0559,383.0805 257.9189,384.4585 257.5919,385.6995 C257.2829,386.8735 255.3989,392.3275 255.9469,393.2175 C256.0039,394.1295 256.4019,394.6445 256.9769,395.0465 C260.5809,397.2995 266.4169,392.4885 270.9109,392.5445 C271.2449,391.9205 271.5659,391.4775 271.8589,390.7695 C271.5989,390.4745 271.7539,390.2455 271.5239,389.8605 C271.2089,389.3345 270.3189,389.0795 269.9389,388.5565 C266.8629,388.5615 263.8179,391.3885 260.3089,391.7155" id="Fill-45" fill="#231F20"></path>
      <path d="M181.1536,389.0202 L180.7936,389.0102 C180.9446,387.4092 181.7776,386.6312 182.1556,385.2662 C183.0466,385.7102 183.5456,387.2192 183.8766,388.1942 C183.1656,388.4892 181.7916,388.5722 181.1536,389.0202 M194.3226,388.1182 C193.6886,386.3822 190.3396,386.4412 188.9386,387.4312 C187.0636,387.3762 185.5516,382.9252 184.9626,381.3812 C183.1316,380.8862 182.4436,379.8412 179.9636,379.8042 C178.7406,383.4942 176.8466,387.4822 175.5016,391.5672 C174.9186,393.3382 173.5946,394.1442 173.5646,396.5562 C173.8556,396.9242 174.1446,397.2922 174.4346,397.6602 C174.8156,397.7622 175.0816,397.8392 175.3256,398.0442 C176.8146,398.0862 177.1926,397.7322 178.0496,397.2182 C178.1406,395.7402 178.5686,394.5712 178.6966,393.2742 C179.7866,393.1072 184.0606,392.4432 185.0436,391.6462 C186.2006,392.1012 188.2476,398.3232 188.4166,400.0212 C188.9476,400.3362 189.4796,400.6512 190.0106,400.9652 C191.1876,400.8162 191.8836,400.2482 192.7446,399.7792 C192.8676,399.3622 192.9686,399.2222 193.1296,398.8902 C191.9116,397.9032 189.8236,392.7902 189.2016,391.0402 C189.9416,390.7822 192.1736,390.7872 192.8196,390.4182 C193.9076,390.4512 194.2146,390.1852 194.4676,389.3822 C194.6016,389.1502 194.5736,388.4772 194.3226,388.1182" id="Fill-47" fill="#231F20"></path>
      <path d="M138.0208,399.1896 C139.2488,399.2026 139.4188,398.8956 140.1998,398.5286 C140.2358,397.3446 139.9368,394.7536 139.5968,394.1906 L139.6308,392.9316 C139.8378,392.5306 144.2898,391.2726 145.0828,391.0996 C145.9768,390.9046 147.1788,391.3396 147.6018,391.1676 C148.2028,390.9236 148.5348,390.1676 149.2558,389.9526 C149.2838,389.3946 149.3128,388.8176 149.1158,388.5076 C149.0568,387.4646 148.3688,386.9286 147.5448,386.6646 C147.2848,386.4926 146.2878,386.2916 145.7498,386.4356 C145.1488,386.5966 144.2548,387.2486 143.7418,387.4606 C142.2858,388.0646 140.7068,387.9136 139.5638,388.7876 C138.7148,388.2206 139.2468,386.4336 138.7518,385.5246 C138.8488,383.2966 140.4468,384.0346 142.0498,383.4536 C142.5998,383.2546 143.2948,382.7296 144.0538,382.6076 C144.6808,382.5066 144.9648,382.8926 145.3038,383.0016 C146.7698,383.4786 147.7798,383.0196 148.7378,382.5556 C148.6068,381.9646 148.4038,381.0106 148.0718,380.5566 C147.4158,379.6116 146.3498,379.0316 144.6918,379.0236 C143.5888,379.7846 141.7778,379.3636 140.3488,379.8056 C137.8658,380.5756 134.7158,381.4636 132.5288,382.6536 C132.6358,382.9676 132.5588,382.8316 132.6988,383.0196 C132.5828,384.7766 133.4838,385.2746 134.9738,385.4216 C135.4468,388.2156 135.2488,391.5946 135.8088,394.4476 C135.9658,395.2516 135.4278,396.4766 135.5598,396.9616 C135.7598,397.6986 136.7038,398.5666 137.1208,399.1656 C137.6748,399.1996 137.8438,399.2916 138.0208,399.1896" id="Fill-49" fill="#231F20"></path>
      <g id="Group-53" transform="translate(395.000000, 0.290000)">
        <mask id="mask-2" fill="white">
          <use xlink:href="#path-1"></use>
        </mask>
        <g id="Clip-52"></g>
        <path d="M31.2298,0.7116 C29.9228,0.6786 29.3578,1.0236 29.0708,1.9716 C28.1348,3.4466 29.3008,7.9036 28.1698,9.7116 C28.0718,9.8026 23.2938,7.9176 22.5898,7.5516 C21.6378,7.0576 20.9498,5.9456 20.0708,5.5716 C18.9598,5.0996 18.2698,5.9656 17.5498,5.7516 C16.9068,5.5606 16.3478,4.4026 15.2098,4.6716 C14.1448,4.9236 12.0638,6.1866 10.7098,5.9316 C9.9598,5.7906 8.7678,4.8786 8.0098,5.0316 C7.3168,5.1406 7.2098,5.3056 6.7508,5.5716 C6.6898,5.8716 6.6298,6.1716 6.5708,6.4716 C5.1148,6.5606 3.3788,6.5296 1.5308,6.4716 C1.2818,6.7386 0.9468,6.9976 0.6298,7.1916 C0.6218,8.1856 0.7198,8.7546 0.9908,9.3516 C2.9528,10.1976 3.9858,10.2196 6.3898,10.0716 C6.7758,13.4646 6.8738,16.0956 7.6498,19.0716 C8.0628,20.6536 7.4518,21.4346 8.1898,22.4916 C8.6578,23.1026 9.4218,23.2476 9.9908,23.7516 C11.7398,23.7656 11.8638,23.1316 12.6898,22.3116 C12.5748,20.6866 11.5488,19.7246 11.2508,18.3516 C10.6818,15.7416 10.6048,12.6626 10.7098,9.5316 C12.7898,9.3846 15.7298,8.1976 17.7298,8.8116 C18.9678,9.1916 20.4818,10.5476 21.6898,11.1516 C23.6668,12.1406 25.7258,12.6076 27.4508,13.6716 C27.8318,15.8276 27.0178,18.4186 26.5498,20.3316 C26.0078,22.5496 26.2428,24.3336 25.6498,26.4516 C25.4268,27.2496 24.7138,28.6776 24.7508,29.1516 C24.7088,31.9086 27.8438,32.3356 29.6098,31.1316 C29.8518,26.2086 30.6108,21.2826 31.7698,16.7316 C32.2328,14.9176 31.8738,13.4916 32.3098,11.6916 C32.6858,10.1446 32.9048,8.2536 33.2098,7.0116 L33.2098,4.8516 C33.2888,4.5036 33.6798,3.5006 33.5708,3.0516 C33.4198,2.4396 32.7268,1.9366 32.4908,1.2516 C32.0218,1.1336 31.5558,0.9776 31.2298,0.7116" id="Fill-51" fill="#231F20" mask="url(#mask-2)"></path>
      </g>
      <path d="M330.1096,3.882 L330.2906,3.882 C330.1736,3.571 330.2556,3.706 330.1096,3.522 L330.1096,3.882 Z" id="Fill-54" fill="#231F20"></path>
      <path d="M342.3499,19.902 C342.2459,18.787 341.9749,18.06 341.9909,16.662 C342.9349,16.526 347.4209,15.465 348.1099,15.042 L348.4699,15.042 C348.1549,16.796 344.3869,19.785 342.3499,19.902 M340.7299,9.462 C341.6979,9.089 343.2289,8.963 344.1499,8.382 L345.5899,8.382 L345.5899,8.562 C344.1999,9.66 343.2489,11.704 341.0899,11.982 C340.9699,11.142 340.8499,10.301 340.7299,9.462 M352.2499,13.422 C351.4939,12.078 349.8269,12.379 348.8299,11.802 L348.4699,11.802 C348.6319,11.31 350.2609,8.531 350.6299,8.202 C350.6739,4.19 346.3229,4.387 342.8899,5.142 C341.8049,5.38 340.9119,5.147 340.1899,5.682 C339.7749,5.305 339.3029,4.835 339.1099,4.242 L337.3099,4.242 C336.9979,4.505 336.5099,4.679 336.0499,4.782 C335.8769,5.768 335.0299,7.38 335.5099,8.562 C335.7289,9.099 336.5629,9.138 336.7699,9.642 C336.9499,11.321 337.1299,13.002 337.3099,14.682 C337.2499,15.102 337.1899,15.522 337.1299,15.942 C337.2049,16.149 337.7529,16.519 337.8499,16.842 C338.4779,18.94 337.9249,19.954 337.8499,21.882 L339.1099,23.322 C343.8849,24.425 348.1829,21.391 350.6299,18.462 C351.5849,17.318 353.5319,15.697 352.2499,13.422" id="Fill-56" fill="#231F20"></path>
      <path d="M393.2903,6.7619 C393.1973,5.5189 392.6753,5.5829 392.3903,4.6019 C391.4223,4.4029 390.9043,4.3859 390.0503,4.2419 C389.6803,4.7259 389.0003,5.0459 388.7903,5.6819 C388.4343,6.7619 389.2643,8.0519 389.1493,8.9219 C388.9843,10.1899 389.3673,12.6299 389.6893,13.9619 L389.6893,19.5419 C389.6453,19.6779 389.1793,20.1269 389.1493,20.2619 C389.0023,20.9669 389.4963,21.0179 389.3303,21.7019 C389.9073,22.0699 390.5973,22.5089 391.1303,22.9619 C392.7653,22.9939 393.3313,22.8129 394.1893,22.2419 C394.4463,19.7349 394.0393,13.7009 393.4703,11.0819 C393.1733,9.7149 393.7513,7.6019 393.2903,6.7619" id="Fill-58" fill="#231F20"></path>
      <path d="M295.01,22.422 C295.284,22.8 295.963,22.881 296.27,23.322 C297.552,23.371 298.345,23.612 299.15,22.962 C299.27,22.902 299.39,22.842 299.51,22.782 C299.517,21.283 299.451,20.724 299.15,19.362 C298.566,16.719 300.079,11.343 300.77,9.462 C301.089,8.594 301.059,7.841 301.67,7.302 C301.701,5.124 300.901,5.517 300.05,4.422 L298.43,4.422 C298.263,4.586 298.116,4.665 297.89,4.782 C297,6.961 296.531,9.466 295.91,11.802 C295.546,13.17 295.986,14.64 295.37,15.402 L295.37,15.582 C294.06,15.118 293.577,13.422 292.85,12.342 C291.649,10.557 289.972,8.827 288.71,7.122 C287.438,7.103 286.896,7.249 286.19,7.662 C286.156,8.278 286.078,9.102 286.01,9.282 C286.743,11.31 289.258,13.534 290.51,15.222 C291.181,16.127 291.982,17.139 292.49,18.102 C292.67,18.642 292.85,19.182 293.031,19.722 C293.373,20.292 294.473,20.297 294.83,20.802 C294.89,21.342 294.95,21.882 295.01,22.422" id="Fill-60" fill="#231F20"></path>
      <path d="M359.4505,4.7819 C358.9105,4.6619 358.3705,4.5419 357.8305,4.4219 C357.5575,4.6789 357.1325,4.8149 356.7505,4.9619 C356.1445,7.9189 357.5245,13.5099 358.0105,17.0219 C358.2035,18.4169 357.3405,19.2219 358.1895,20.4419 C359.2095,22.0179 362.0945,22.0899 362.6895,20.0819 C363.0795,19.3149 362.1715,18.2189 361.9705,17.5619 C361.9105,16.7819 361.8495,16.0019 361.7905,15.2219 C361.6205,14.5029 360.4025,7.9139 360.8895,7.1219 C360.6835,5.9469 360.0145,5.5489 359.4505,4.7819" id="Fill-62" fill="#231F20"></path>
      <path d="M373.3098,7.1218 C372.7328,6.5698 371.9448,5.8058 371.5098,5.1418 C371.0078,5.1928 370.0748,5.2608 369.7098,5.5018 C367.8518,5.9938 369.1878,7.6948 368.9908,9.1018 C368.5058,12.5488 368.9388,18.0478 368.2698,21.7018 C368.6418,22.0468 368.9368,22.4778 369.1698,22.9618 C369.6498,23.1418 370.1298,23.3218 370.6098,23.5018 C373.2738,23.4678 372.5568,22.8448 374.0308,22.0618 C375.3868,21.3408 376.7438,21.2318 378.1698,20.6218 C378.4408,20.5058 378.8418,20.0048 379.0708,19.9018 C380.5228,19.2438 383.4498,19.2488 384.4698,18.2818 C384.9488,17.7338 385.1488,16.9048 384.6498,16.3018 C384.3988,15.5988 383.9698,15.5488 383.5708,15.0418 C382.9598,15.0038 382.0398,14.6158 381.5898,14.6818 C380.7468,14.8058 380.3868,15.7838 379.7898,16.1218 C378.6468,16.7708 377.4528,16.6728 376.1898,17.2018 C375.1658,17.6318 374.1218,18.3098 372.7698,18.4618 C372.7548,14.6028 373.6128,11.0568 373.3098,7.1218" id="Fill-64" fill="#231F20"></path>
      <path d="M308.3304,22.2419 C309.0764,22.5739 310.9894,23.5869 311.9304,22.9619 C312.4154,22.7959 312.4574,22.6529 312.8304,22.4219 C312.8134,20.7219 312.4034,20.1079 312.1094,18.8219 C311.4784,16.0509 311.7814,13.3579 311.2104,10.7219 C310.9064,9.3179 311.5014,7.7149 310.8504,6.7619 C310.6554,6.1829 310.5374,6.0489 309.9504,5.8619 C309.6354,5.6339 308.9944,5.5419 308.5104,5.5019 C308.2064,5.7319 307.7434,5.8179 307.2504,5.8619 C307.1894,5.9219 307.1304,5.9819 307.0704,6.0419 C306.5874,8.6759 307.3934,12.3839 307.9704,14.8619 C308.5254,17.2519 308.0984,20.0039 308.3304,22.2419" id="Fill-66" fill="#231F20"></path>
      <path d="M323.2698,12.882 C322.8908,13.197 322.2718,13.364 321.6498,13.422 C321.8098,12.603 322.1688,12.396 322.3708,11.622 C323.0428,11.793 322.9838,12.019 323.4498,12.342 C323.3778,12.712 323.4058,12.689 323.2698,12.882 M329.2098,15.402 C329.5098,15.125 330.0408,15.01 330.4698,14.862 L330.8308,13.242 C330.3258,12.889 330.2538,12.287 329.7498,11.982 C329.1848,11.313 327.8458,11.725 327.4108,11.442 C326.1368,10.46 325.9058,8.556 324.8898,7.302 C324.3788,6.671 323.5768,6.16 323.0898,5.502 L321.4698,5.502 C321.3328,5.626 321.0688,5.739 320.9298,5.862 C319.8178,6.343 319.6118,8.667 319.1298,9.822 C318.4628,11.423 317.3468,13.219 316.7908,14.862 C316.2088,16.575 316.3288,18.761 315.3498,20.082 C315.2438,21.696 316.5018,23.32 317.8708,22.422 C318.8728,22.402 318.9348,22.232 319.4908,21.882 C319.5358,20.179 320.1168,18.558 320.0298,17.382 L320.3898,17.022 C321.7058,16.991 323.6228,16.733 324.5298,16.122 C325.7598,16.158 327.2078,19.397 326.6898,20.262 C326.9918,21.554 328.1238,21.6 328.8498,22.422 C329.6898,22.302 330.5298,22.182 331.3708,22.062 C331.4848,21.66 331.5028,21.586 331.7298,21.342 C331.7208,19.984 329.8628,16.083 329.2098,15.402" id="Fill-68" fill="#231F20"></path>
    </g>
  </g>
</svg>
